<svg width="24" height="24" viewBox="0 0 24 24" fill="none" xmlns="http://www.w3.org/2000/svg">
<path d="M16.474 7.42776L3.75346 2.65755C3.00483 2.37681 2.2458 3.04463 2.42892 3.82292L5.60907 17.3385C5.78409 18.0824 6.69491 18.363 7.25821 17.8466L16.7986 9.10125C17.3487 8.59703 17.1727 7.68977 16.474 7.42776Z" fill="#670ad7"/>
<path d="M19.2929 18.2929L11.7071 10.7071C11.3166 10.3166 10.6834 10.3166 10.2929 10.7071L9.70711 11.2929C9.31658 11.6834 9.31658 12.3166 9.70711 12.7071L17.2929 20.2929C17.6834 20.6834 18.3166 20.6834 18.7071 20.2929L19.2929 19.7071C19.6834 19.3166 19.6834 18.6834 19.2929 18.2929Z" fill="#670ad7"/>
</svg>
